<svg width="251" height="64" viewBox="0 0 251 64" fill="none" xmlns="http://www.w3.org/2000/svg">
<path d="M11.2605 51.7975L0.227484 43.1467C0.227484 43.1467 -0.284355 47.5495 0.227484 50.293C3.33602 66.955 28.5439 67.6167 29.0637 49.1647V0.519287H18.9083V48.7885C18.5554 53.1766 15.2957 54.305 11.2605 51.7975Z" fill="#4D3B87"/>
<path d="M49.523 16.5675C35.6995 15.7036 31.7982 28.9793 31.2183 35.6243C30.6385 42.2693 31.2183 62.4544 48.2693 63.2066C55.2296 63.5137 59.9291 60.6158 60.8067 59.6963L57.6724 50.0425C54.9141 52.0485 44.4967 53.2429 43.3797 46.6574C42.7073 42.6932 58.4246 38.508 60.4306 31.2363C62.4366 23.9646 59.553 17.1942 49.523 16.5675Z" fill="#EC580F"/>
<path d="M75.2248 43.5228C75.2248 43.5228 78.6642 46.0104 79.3622 48.4124C81.5323 55.881 72.1514 54.8198 68.0784 52.1737L65.1948 59.5708C69.9834 62.6776 75.542 64.6546 81.1174 62.7051C85.8315 61.0568 89.5268 57.2549 90.1444 52.1737C90.5598 48.7555 89.489 46.2155 87.5115 43.5228C84.1332 38.9226 75.0232 34.7918 74.2218 28.854C73.3098 22.0969 82.5922 25.2437 85.1294 27.7256L88.7653 20.5792C88.7653 20.5792 84.4459 17.1143 81.1174 16.4419C76.7745 15.5645 71.8113 16.5452 68.5799 19.7016C66.5588 21.6759 65.7386 23.3232 65.1948 26.0957C64.2368 30.9804 66.3313 34.3934 69.3322 38.0063C71.3463 40.4312 75.2248 43.5228 75.2248 43.5228Z" fill="#EC580F"/>
<path d="M103.794 43.5228C103.794 43.5228 107.233 46.0104 107.931 48.4124C110.102 55.881 100.737 54.8198 96.6639 52.1737L93.7641 59.5708C98.5527 62.6776 104.111 64.6546 109.687 62.7051C114.401 61.0568 118.096 57.2549 118.714 52.1737C119.129 48.7555 118.058 46.2155 116.081 43.5228C112.702 38.9226 103.592 34.7918 102.791 28.854C101.879 22.0969 111.161 25.2437 113.699 27.7256L117.335 20.5792C117.335 20.5792 113.015 17.1143 109.687 16.4419C105.344 15.5645 100.381 16.5452 97.1492 19.7016C95.1281 21.6759 94.3079 23.3232 93.7641 26.0957C92.806 30.9804 94.9005 34.3934 97.9014 38.0063C99.9155 40.4312 103.794 43.5228 103.794 43.5228Z" fill="#EC580F"/>
<path d="M154.211 16.0657C149.693 17.2114 144.055 22.3345 144.055 22.3345C145.592 24.8204 147.48 27.0559 150.073 28.4778C151.961 29.5127 155.339 30.1077 155.339 30.1077C155.339 30.1077 151.475 30.8889 149.321 32.1137C144.839 34.6631 142.787 38.5337 141.548 43.3974V56.8125C141.548 56.8125 143.59 49.9762 145.811 46.0303C148.614 41.0501 151.62 36.7526 157.972 36.7526C163.207 36.7526 167.877 39.649 167.877 45.278V62.2036H178.032V31.4868C177.029 25.2181 174.711 21.5767 169.507 18.3225C164.387 15.1213 157.913 15.127 154.211 16.0657Z" fill="#4D3B87"/>
<path d="M191.698 62.0782H181.292V35.6242C181.292 29.0466 185.194 22.6801 190.569 19.0747C194.995 16.1063 200.126 15.0413 205.364 15.815C207.726 16.1639 211.256 17.4449 211.256 17.4449V27.9763C211.256 27.9763 207.208 25.6979 204.361 25.5942C197.617 25.3486 193.963 30.1558 191.698 35.6242V62.0782Z" fill="#4D3B87"/>
<path d="M227.179 16.0657C222.661 17.2114 217.023 22.3345 217.023 22.3345C218.56 24.8204 220.448 27.0559 223.041 28.4778C224.929 29.5127 228.307 30.1077 228.307 30.1077C228.307 30.1077 224.443 30.8889 222.289 32.1137C217.807 34.6631 215.755 38.5337 214.516 43.3974V56.8125C214.516 56.8125 216.558 49.9762 218.779 46.0303C221.582 41.0501 224.588 36.7526 230.94 36.7526C236.175 36.7526 240.845 39.649 240.845 45.278V62.2036H251V31.4868C249.997 25.2181 247.679 21.5767 242.475 18.3225C237.355 15.1213 230.881 15.127 227.179 16.0657Z" fill="#4D3B87"/>
<path d="M234.325 43.3974L214.767 61.9529H234.325V43.3974Z" fill="#4D3B87"/>
<path d="M140.42 0.770036H130.139V62.7051H140.42V0.770036Z" fill="#EC580F"/>
<path d="M160.73 43.8989L142.175 62.2036H160.73V43.8989Z" fill="#EC580F"/>
</svg>
